<svg xmlns="http://www.w3.org/2000/svg" viewBox="0 0 483 570"><defs><style>.cls-1{fill:#ccc;}.cls-2{fill:red;}.cls-3{fill:#020202;}.cls-4{fill:#939393;}.cls-5{fill:#fff;}.cls-6{fill:#313130;}.cls-7{fill:#d0d0d0;}.cls-8{fill:#d1d1d1;}.cls-9{fill:#fffefe;}.cls-10{fill:#fefefe;}.cls-11{fill:#9f3b27;}.cls-12{fill:#9f3a27;}.cls-13{fill:#b7290c;}.cls-14{fill:#b6280c;}.cls-15{fill:#f4f1f0;}.cls-16{fill:#e6e0de;}.cls-17{fill:#b8290d;}.cls-18{fill:#b72a0d;}.cls-19{fill:#b82a0e;}.cls-20{fill:#1d1b1a;}.cls-21{fill:#1a1818;}.cls-22{fill:#a03b28;}.cls-23{fill:#a03b27;}</style></defs><g id="Layer_1" data-name="Layer 1"><path class="cls-1" d="M388,132V318H231V132H388m3-3H228V321H391V129Z" transform="translate(-228 -129)"/><path class="cls-1" d="M548,132V318H391V132H548m3-3H388V321H551V129Z" transform="translate(-228 -129)"/><path class="cls-1" d="M708,132V318H551V132H708m3-3H548V321H711V129Z" transform="translate(-228 -129)"/><path class="cls-1" d="M708,321V507H551V321H708m3-3H548V510H711V318Z" transform="translate(-228 -129)"/><path class="cls-1" d="M548,321V507H391V321H548m3-3H388V510H551V318Z" transform="translate(-228 -129)"/><path class="cls-1" d="M388,321V507H231V321H388m3-3H228V510H391V318Z" transform="translate(-228 -129)"/><path class="cls-1" d="M388,510V696H231V510H388m3-3H228V699H391V507Z" transform="translate(-228 -129)"/><path class="cls-1" d="M548,510V696H391V510H548m3-3H388V699H551V507Z" transform="translate(-228 -129)"/><path class="cls-1" d="M708,510V696H551V510H708m3-3H548V699H711V507Z" transform="translate(-228 -129)"/></g><g id="Layer_2" data-name="Layer 2"><path class="cls-2" d="M647.14,208.79C577,206,502.79,203.41,438.68,236.71c-26.8,13.92-51.12,33.53-67.51,59.16-18.48,28.9-25.9,62.74-30.56,96.27-2.56,18.46-4.1,37-6.12,55.57q-.72,6.65-1.55,13.29c-.32,2.48-.64,5-1,7.44.42-2.93-.4,2.59-.58,3.68-1.34,8.39-3.28,18.53-5.14,25.66a74.28,74.28,0,0,0-1,30.71c.46,2.75.79,8.48,3.17,10.23,1.93,1.41,3.15-.18,3.72-2.35,8.65-33.18,11.31-67.22,15-101.19.42-3.87.85-7.72,1.33-11.58.23-1.92.48-3.84.73-5.76l.45-3.28c-.25,1.83-.15,1,.05-.35,1.24-8.11,2.67-16.18,4.5-24.18,3-13.06,8.08-28.44,15-41.36,30.06-56,92.28-83.69,152.64-92.38,41.86-6,84.31-4.35,126.42-2.67,2.12.08,3.15-5.94,3.3-6.65a69.4,69.4,0,0,0,1-15.89,73.72,73.72,0,0,0-1.82-15.81c-.44-1.71-1.28-6.39-3.62-6.48Z" transform="translate(-228 -129)"/><path class="cls-3" d="M290.5,532.94v-.12l.11.07c0-.07,0-.11,0-.15,0-.45.07-.91.11-1.37.09-1,.24-2.08.43-3.11a34.67,34.67,0,0,1,1.73-6.17A35.75,35.75,0,0,1,303.82,507a35.59,35.59,0,0,1,17.06-7.57c.78-.12,1.56-.22,2.35-.27l1.58-.12h2.94l.68.05a34,34,0,0,1,3.9.44,35.8,35.8,0,0,1,28.81,27.22c.23,1,.42,2,.56,3.06a23.12,23.12,0,0,1,.24,2.48v.5c0,.1,0,.21,0,.31a.75.75,0,0,0,.06.13v3.18a2.51,2.51,0,0,0-.06.82,5.82,5.82,0,0,1,0,.59c-.09,1-.2,1.94-.37,2.91a35.81,35.81,0,0,1-28.39,29.11c-.85.17-1.72.31-2.58.4l-1.83.18h-1.4a.24.24,0,0,0-.1,0h-1.94l-.13-.06h-1.3l-1.24-.12a29.89,29.89,0,0,1-3-.43,33.54,33.54,0,0,1-6.6-1.93,35.87,35.87,0,0,1-20.79-22.32,33.49,33.49,0,0,1-1.18-4.84c-.13-.79-.24-1.58-.32-2.38s-.1-1.45-.15-2.17c0-.13,0-.25-.05-.37s0,0-.06-.07v-1.5a2.15,2.15,0,0,0,.1-.94v-.5Zm10.23,23.27.06.09c.17.23.33.47.52.7s.46.51.69.76a33.59,33.59,0,0,0,2.6,2.46,2.74,2.74,0,0,0,.75.55l.43.35a33.19,33.19,0,0,0,19.7,7.06,32.51,32.51,0,0,0,5.22-.29,32.17,32.17,0,0,0,3.89-.75,32.93,32.93,0,0,0,12.7-6.39,1.45,1.45,0,0,0,.18-.17h0l.09-.06a1.73,1.73,0,0,0,.3-.16c.17-.13.33-.28.49-.43a9.69,9.69,0,0,0,1.55-1.52l.07-.08h0c.05,0,.12-.05.07-.13h0c.08,0,.09,0,.12-.07l.16-.15a33.45,33.45,0,0,0,8.22-14.38,34.2,34.2,0,0,0,.9-4.46c.12-.9.19-1.8.25-2.7,0-.16,0-.31,0-.47l0-.34a33.63,33.63,0,0,0-.24-5c-.15-1.13-.34-2.26-.6-3.37a33.2,33.2,0,0,0-5.4-11.92c-.4-.55-.82-1.08-1.23-1.62a2,2,0,0,0-.75-.84s0,0,0,0h0c0-.07,0-.1-.09-.13-.54-.62-1.1-1.21-1.68-1.78l-.13-.1-.48.47a.27.27,0,0,1-.11-.19l.22-.22.21-.24c-.36-.33-.7-.67-1.07-1a2,2,0,0,0-.53-.55.7.7,0,0,1-.1-.08l-1-.83c-.07-.05-.13-.13-.24-.11a.1.1,0,0,1-.05,0,33.24,33.24,0,0,0-19-6.7,33.54,33.54,0,0,0-8.87.91,33.25,33.25,0,0,0-12.69,6.12.18.18,0,0,0-.17.06l-.39.31-1.58,1.36a1,1,0,0,0-.27.34l-.19.17a1.12,1.12,0,0,0-.27.3l.16.16a.29.29,0,0,1-.11.19l-.22-.22-.74.76c-.06,0-.15.08-.13.19h0c-.07,0-.08,0-.1.06a4.25,4.25,0,0,0-.65.62l-.3.36-.75.91c-.05.06-.11.12-.08.22s-.13.14-.18.21A33.08,33.08,0,0,0,293.42,529c-.19,1.06-.32,2.12-.41,3.18-.08.88-.1,1.77-.1,2.65,0,.41,0,.81,0,1.21a.83.83,0,0,0,0,.22c0,.28,0,.56.05.84a25.94,25.94,0,0,0,.34,3,32.39,32.39,0,0,0,1.61,6.17,33.17,33.17,0,0,0,5.41,9.52l.19.19h0l0,.06.11.13h0l.06.07Z" transform="translate(-228 -129)"/><path class="cls-4" d="M327.19,499.05h-1.75V499h1.75Z" transform="translate(-228 -129)"/><path class="cls-4" d="M290.6,533.37a2.15,2.15,0,0,1-.1.94v-.93Z" transform="translate(-228 -129)"/><path class="cls-5" d="M290.6,533.37h-.1v-.44l.1-.07Z" transform="translate(-228 -129)"/><path class="cls-4" d="M362,537.25h-.06a2.51,2.51,0,0,1,.06-.82Z" transform="translate(-228 -129)"/><path class="cls-6" d="M324.5,570.44h.68l.13.06h-.81Z" transform="translate(-228 -129)"/><path class="cls-6" d="M327.25,570.5a.24.24,0,0,1,.1,0h.6s0,0,0,0Z" transform="translate(-228 -129)"/><path class="cls-4" d="M324.5,570.44v.06h-.62v-.06Z" transform="translate(-228 -129)"/><path class="cls-7" d="M325.44,499v.05h-.63a.13.13,0,0,0,0-.06Z" transform="translate(-228 -129)"/><path class="cls-7" d="M327.19,499.05V499h.56v.06Z" transform="translate(-228 -129)"/><path class="cls-4" d="M361.94,532.31a0,0,0,0,0,.06,0v.5h-.06Z" transform="translate(-228 -129)"/><path class="cls-7" d="M328.75,570.44v.06h-.44a0,0,0,0,0,0,0Z" transform="translate(-228 -129)"/><path class="cls-6" d="M361.94,532.81H362v.43a.75.75,0,0,1-.06-.13C361.93,533,361.94,532.91,361.94,532.81Z" transform="translate(-228 -129)"/><path class="cls-4" d="M328.31,570.45a0,0,0,0,1,0,0h-.38s0,0,0,0Z" transform="translate(-228 -129)"/><path class="cls-5" d="M305.82,508.42a33.25,33.25,0,0,1,12.69-6.12,33.54,33.54,0,0,1,8.87-.91,33.24,33.24,0,0,1,19,6.7.1.1,0,0,0,.05,0l-.09.16c0,.07,0,.14-.07.2a.78.78,0,0,0,.09.6c.39.83.77,1.65,1.16,2.47l.4.84-.22.27-.11-.22-1.11-2.37a1.83,1.83,0,0,0-.13-.24.74.74,0,0,0-1.35.4.86.86,0,0,0,.12.44c.42.91.85,1.82,1.27,2.74a2.94,2.94,0,0,0,.39.66l-.33.54a2.19,2.19,0,0,1-.17-.29c-.34-.71-.66-1.41-1-2.12,0-.08-.08-.17-.13-.25a.73.73,0,0,0-1-.25.72.72,0,0,0-.36.89c0,.09.07.17.11.26l1.3,2.79a1.77,1.77,0,0,0,.35.55l-.33.68c-.09.18-.17.35-.26.52l-.16-.33c-.38-.8-.75-1.6-1.12-2.4,0-.08-.08-.17-.13-.25a.69.69,0,0,0-.73-.32.67.67,0,0,0-.59.48.74.74,0,0,0,0,.6l.45,1,1,2.06a1,1,0,0,0,.29.41l.39.3c-.12.34-.24.68-.37,1a1.3,1.3,0,0,1-.08.17,2.09,2.09,0,0,0-.14-.17L342,517.71a1.81,1.81,0,0,0-.18-.21.74.74,0,0,0-1.14.93c0,.07.1.13.15.2l2.13,2.56c.06.07.15.14.16.22a1.1,1.1,0,0,0,.34.59c-.05.15-.1.31-.14.47-.14.57-.27,1.14-.41,1.71a2.73,2.73,0,0,1-.23-.25l-2.08-2.49-.14-.16a.74.74,0,0,0-1-.07.75.75,0,0,0-.15,1c.07.1.15.19.23.29.8,1,1.6,1.91,2.39,2.87a1.15,1.15,0,0,0,.66.44l-.06.4c-.08.61-.17,1.23-.25,1.84-.1,0-.15-.09-.21-.16L340.21,526l-.18-.18a.74.74,0,0,0-1.08,1,1.71,1.71,0,0,0,.18.2l2.28,2.43a.84.84,0,0,1,.19.24,1,1,0,0,0,.44.54c0,.42-.05.84-.08,1.26l-.06,1-.28-.21-2.15-1.7a2.27,2.27,0,0,0-.25-.18.76.76,0,0,0-1,.19.74.74,0,0,0,.06,1,1.43,1.43,0,0,0,.23.2l2.72,2.14.2.17a3.29,3.29,0,0,0,0,.36.9.9,0,0,0,.36.5c0,.45,0,.91,0,1.36,0,.63,0,1.26,0,1.89l-.28-.13-3-1.79a2.34,2.34,0,0,0-.27-.15.74.74,0,0,0-.77,1.26l.18.11,3.42,2.06a.68.68,0,0,0,.22.12,1.35,1.35,0,0,1,.56.31c0,.36.05.72.07,1.08l.09,1.17-.26-.1-2.4-1-.29-.11a.73.73,0,0,0-.87.43.74.74,0,0,0,.28.9l.25.13,2.54,1.11,1,.44c.06.38.1.76.16,1.14.1.57.21,1.14.31,1.71l-.3-.08-2.52-.79a1.34,1.34,0,0,0-.27-.07.74.74,0,0,0-.43,1.39,1.45,1.45,0,0,0,.29.11l1.45.45,2.2.7.21.81c.13.45.27.89.4,1.34h-.28l-2.42,0h-.43a.75.75,0,0,0-.66,1,.73.73,0,0,0,.68.46h1c0,.08,0,.11-.11.14l-.77.32c-.6.24-1.2.48-1.8.7-.42.16-.84.29-1.27.43s-1.05.32-1.58.46c-.74.2-1.48.39-2.23.54l-1.16.21-.89.14-.73.11-.65.07c-.3,0-.6.08-.89.11l-.72.05c-.39,0-.78,0-1.17.06-.57,0-1.15,0-1.72,0a16.28,16.28,0,0,1-1.71,0c-.34-.05-.7,0-1.05-.07l-1.33-.12-1-.13c-.46-.08-.93-.12-1.38-.21l-2-.42c-1.12-.26-2.22-.57-3.32-.94-.87-.29-1.74-.62-2.59-1-.24-.09-.47-.21-.71-.31-.06,0-.11-.07-.11-.14a4.7,4.7,0,0,0,.53,0,.74.74,0,0,0,.17-1.43,1.12,1.12,0,0,0-.31-.05h-.78l-2.27,0,.39-1.3c.08-.27.14-.55.21-.83l.29-.11,3.33-1.05a1.73,1.73,0,0,0,.32-.11.74.74,0,0,0,.39-.89.73.73,0,0,0-.82-.51,1.34,1.34,0,0,0-.27.07l-2.8.88,0-.25c.17-.87.33-1.74.44-2.61l.31-.15,3.11-1.35a3.36,3.36,0,0,0,.33-.16.73.73,0,0,0,.34-.78.7.7,0,0,0-.55-.57.69.69,0,0,0-.51,0l-1,.42-1.83.79c0-.34.05-.68.08-1s.05-.83.08-1.24a1.38,1.38,0,0,1,.57-.31.8.8,0,0,0,.22-.12l3.41-2.06a1.48,1.48,0,0,0,.21-.13.73.73,0,0,0,.22-.82.72.72,0,0,0-.69-.49.89.89,0,0,0-.47.14l-1.6,1-1.77,1.06c0-.12,0-.23,0-.34,0-1,0-2,0-2.94a.84.84,0,0,0,.32-.38c.05-.15.06-.32.1-.5l.17-.14,2.69-2.12a2.88,2.88,0,0,0,.27-.22.75.75,0,0,0,.15-.83.75.75,0,0,0-1.18-.24l-1.08.84-1.47,1.15,0-.4c0-.63-.07-1.27-.11-1.9a.9.9,0,0,0,.39-.43,1,1,0,0,1,.24-.36c.77-.82,1.54-1.63,2.3-2.45a2.41,2.41,0,0,0,.21-.24.75.75,0,0,0-1.09-1l-.2.2c-.6.64-1.19,1.28-1.79,1.91l-.25.24c0-.25-.06-.49-.1-.74-.07-.5-.15-1-.23-1.52a1.23,1.23,0,0,0,.68-.46c.8-1,1.62-2,2.43-2.92.06-.08.13-.16.19-.25a.74.74,0,0,0-.16-1,.76.76,0,0,0-1,0c-.08.08-.15.17-.23.26l-2,2.44-.21.22-.12-.48c-.15-.57-.3-1.14-.44-1.71a.74.74,0,0,0,.3-.42.88.88,0,0,1,.23-.41c.7-.84,1.4-1.69,2.11-2.53a1.49,1.49,0,0,0,.15-.2.73.73,0,0,0-.14-1,.75.75,0,0,0-1,0l-.17.19-1.85,2.22-.2.2c-.14-.39-.29-.78-.43-1.18.09-.07.17-.15.26-.21a1.19,1.19,0,0,0,.45-.54c.43-.95.87-1.88,1.31-2.82,0-.09.08-.17.11-.26a.74.74,0,0,0-1.32-.65,1.47,1.47,0,0,0-.14.28l-1.26,2.7s-.07-.1-.1-.16l-.51-1.07a.93.93,0,0,0,.31-.42c.47-1,.93-2,1.39-3a1.3,1.3,0,0,0,.08-.17.76.76,0,0,0-.39-.92.74.74,0,0,0-.95.29c-.05.08-.08.17-.12.25l-1,2-.18.36-.37-.56a1.16,1.16,0,0,0,.3-.43l1.35-2.9a1.15,1.15,0,0,0,.1-.23.72.72,0,0,0-.38-.91.73.73,0,0,0-1,.28,2.26,2.26,0,0,0-.11.22l-1.07,2.28a2.85,2.85,0,0,1-.16.3l-.21-.27.16-.3c.47-1,.93-2,1.41-3A1,1,0,0,0,305.82,508.42Z" transform="translate(-228 -129)"/><path class="cls-8" d="M310.84,552.17c0,.07.05.11.11.14.24.1.47.22.71.31.85.35,1.72.68,2.59,1,1.1.37,2.2.68,3.32.94l2,.42c.45.09.92.13,1.38.21l1,.13,1.33.12c.35,0,.71,0,1.05.07a16.28,16.28,0,0,0,1.71,0c.57,0,1.15,0,1.72,0,.39,0,.78,0,1.17-.06l.72-.05c.29,0,.59-.09.89-.11l.65-.07.73-.11.89-.14,1.16-.21c.75-.15,1.49-.34,2.23-.54.53-.14,1.06-.3,1.58-.46s.85-.27,1.27-.43c.6-.22,1.2-.46,1.8-.7l.77-.32c.06,0,.11-.06.11-.14l.32,0,.15,0,1.92,0,.31,0c.18.44.37.89.56,1.33.09.21.2.4.3.61a.33.33,0,0,1-.14.2h-.67l-2.77,0h-.22a.74.74,0,0,0,0,1.48H343l2.15,0a3.84,3.84,0,0,0,1.12-.06l.4.66s-.05.1-.08.12l-.21.07-3.3.88a2.13,2.13,0,0,0-.33.11.7.7,0,0,0-.41.64.73.73,0,0,0,.88.75c.31-.07.6-.16.9-.24l2.44-.65a.72.72,0,0,1,.33,0,.63.63,0,0,0,.53-.11l.19-.1.41.57a.59.59,0,0,1-.47.51c-.84.2-1.67.44-2.5.66l-.21.07a.74.74,0,0,0,.42,1.41c.1,0,.2,0,.3-.07l1.63-.44a.52.52,0,0,1,.33,0,1.45,1.45,0,0,1-.18.17,32.93,32.93,0,0,1-12.7,6.39,32.17,32.17,0,0,1-3.89.75,32.51,32.51,0,0,1-5.22.29,33.19,33.19,0,0,1-19.7-7.06l-.43-.35.33,0,1.14.3a.74.74,0,1,0,.34-1.45l-.75-.2-1.88-.5c-.08,0-.18-.05-.22-.11a.85.85,0,0,1-.21-.37l.44-.59.21.14a.65.65,0,0,0,.45.09.74.74,0,0,1,.39,0l2.38.63c.32.09.64.18,1,.25a.71.71,0,0,0,.83-.5.72.72,0,0,0-.38-.89.9.9,0,0,0-.23-.08l-3.4-.91-.23-.08s0-.07-.06-.11l.4-.65a3.53,3.53,0,0,0,.92,0l.72,0h3.05a.77.77,0,0,0,.66-.61.77.77,0,0,0-.78-.88h-1l-2.43,0a.24.24,0,0,1-.26-.13.54.54,0,0,0,0-.11.94.94,0,0,0,.09-.12,19.16,19.16,0,0,0,.78-1.8l.25,0,2.4,0,.28,0Z" transform="translate(-228 -129)"/><path class="cls-9" d="M352.23,513.73c.41.54.83,1.07,1.23,1.62a33.2,33.2,0,0,1,5.4,11.92c.26,1.11.45,2.24.6,3.37a33.63,33.63,0,0,1,.24,5l0,.34c-.12,0-.14.1-.19.18-.31.52-.6,1-.92,1.55s-.64,1-1,1.48c-.46.66-.95,1.3-1.44,1.94-.21.28-.45.55-.68.82s-.25.3-.38.44c-.27.32-.53.64-.82.94l-2.14,2.14-.18.17-.73.62c-.21.18-.4.37-.61.53-.55.44-1.11.87-1.67,1.3-.28.22-.57.41-.86.62a.2.2,0,0,1-.2,0c.06-.09.12-.17.17-.26a.74.74,0,0,0-1.15-.92,2.2,2.2,0,0,0-.2.23l-2.18,2.64c-.05.06-.1.13-.16.19a.18.18,0,0,1-.19.06c-.23-.68-.44-1.36-.61-2.05h.25a.73.73,0,0,0,.67-.63.63.63,0,0,1,.19-.37l2.32-2.4a1.55,1.55,0,0,0,.21-.23.74.74,0,0,0-1.08-1l-.22.22-2.4,2.49-.18.18c-.06.07-.13,0-.19,0a2,2,0,0,1,0-.24c-.17-.86-.33-1.71-.44-2.57l.19,0a.7.7,0,0,0,.78-.44.94.94,0,0,1,.26-.3l2.73-2.27a2.41,2.41,0,0,0,.24-.21.73.73,0,0,0,.05-1,.76.76,0,0,0-1-.17c-.07,0-.13.1-.2.15l-2.61,2.17-.43.36a.4.4,0,0,1-.26-.12c0-.31-.06-.61-.08-.92,0-.47-.07-.93-.1-1.39a1,1,0,0,0,.62-.25l3.14-2.61.14-.12a.74.74,0,0,0-1-1.13L345,536l-.93.77-1.73,1.43c-.06,0-.12.12-.21.11s0-.21,0-.31c0-1,0-2,0-3a1.09,1.09,0,0,0,.65-.18l3.54-2,.15-.1a.74.74,0,0,0,.24-1,.76.76,0,0,0-1-.29l-.21.12L343,533l-.3.17-.48-.37-.1-.12c0-.15,0-.31,0-.46,0-.65.06-1.29.1-1.93.16,0,.32-.06.48-.11l2.53-.79,1.28-.4a.74.74,0,0,0-.43-1.42l-.27.08-2.95.92-.2.05a1.12,1.12,0,0,1-.27-.31,2.56,2.56,0,0,0,.05-.27c0-.27.07-.54.11-.8.06-.48.14-1,.21-1.42a1.49,1.49,0,0,1,.21,0,1.39,1.39,0,0,0,.61,0l2.8-.44a5.3,5.3,0,0,0,.55-.1.73.73,0,0,0,.5-.68.76.76,0,0,0-.44-.7.91.91,0,0,0-.49-.05l-1.69.27-1.75.27a2.7,2.7,0,0,1,0-.28l.48-2h.62l3-.13a1.33,1.33,0,0,0,.28,0,.73.73,0,0,0,.58-.8.74.74,0,0,0-.71-.66h-.19l-2.55.11h-.29l-.19-.28.46-1.32.25,0,2.94.34.4,0a.75.75,0,0,0,.76-.58.74.74,0,0,0-.43-.84,1.05,1.05,0,0,0-.24-.06l-1.46-.17-1.6-.2a.28.28,0,0,1,0-.09c.18-.38.37-.76.55-1.15l.32.1,2.76,1.06a1.5,1.5,0,0,0,.36.11.73.73,0,0,0,.82-.91.78.78,0,0,0-.52-.54l-1.62-.63-1.19-.46c-.08,0-.16,0-.18-.15l.43-.7a.83.83,0,0,1,.43.15l2.34,1.5.29.17a.73.73,0,0,0,.81-.14.72.72,0,0,0,.19-.77.86.86,0,0,0-.38-.44l-1.52-1c-.42-.26-.83-.54-1.25-.81l.21-.31a2.85,2.85,0,0,1,.3.16l2.46,1.57.21.13a.74.74,0,0,0,1.08-.43Z" transform="translate(-228 -129)"/><path class="cls-10" d="M293,536c0-.4,0-.8,0-1.21,0-.88,0-1.77.1-2.65.09-1.06.22-2.12.41-3.18a33.08,33.08,0,0,1,6.44-14.54c.05-.07.12-.14.18-.21l.11.1a.76.76,0,0,0,.61.18.91.91,0,0,0,.39-.17l2.53-1.62.3-.17.23.31-.3.21-2.39,1.53a1.88,1.88,0,0,0-.23.16.74.74,0,0,0,.78,1.24,2,2,0,0,0,.25-.14l2.36-1.51a.73.73,0,0,1,.43-.16l.43.7s0,.08-.06.1l-.25.11-2.53,1a2.12,2.12,0,0,0-.31.14.74.74,0,0,0,.52,1.36,1.76,1.76,0,0,0,.3-.1l2.75-1.06.33-.1.56,1.24-2.13.26-1,.12a.74.74,0,0,0-.62.8.75.75,0,0,0,.77.67l.49,0,2.41-.28.68-.07.47,1.32a.58.58,0,0,1-.23.28l-1.84-.08c-.39,0-.79,0-1.18,0a.73.73,0,0,0-.69.68.77.77,0,0,0,.53.76,1.1,1.1,0,0,0,.31,0l3.23.14h.41c.2.74.39,1.48.53,2.24l-2.95-.46c-.22,0-.45-.08-.68-.09a.73.73,0,0,0-.74.66.74.74,0,0,0,.52.79l.21,0,3.07.49a1.73,1.73,0,0,0,.68,0,.37.37,0,0,1,.18,0l.18,1.17c.07.44.13.88.19,1.33a1,1,0,0,1-.27.3l-.21-.05-3-.93a1.09,1.09,0,0,0-.24-.07.74.74,0,0,0-.42,1.42l.17.06,3.57,1.11a5.29,5.29,0,0,0,.54.13l.09,1.63c0,.26,0,.51.05.77a3,3,0,0,1-.6.47l-.28-.16-2.49-1.43-.25-.13a.74.74,0,0,0-.94.32.75.75,0,0,0,.22,1,1.18,1.18,0,0,0,.19.11c1.18.68,2.36,1.35,3.53,2a1.09,1.09,0,0,0,.65.16c0,.52,0,1,0,1.55l0,1.76h0l0,0h-.09c-.07,0-.13-.1-.2-.15l-2.54-2.11a1.71,1.71,0,0,0-.27-.2.69.69,0,0,0-.82.07.71.71,0,0,0-.26.75.87.87,0,0,0,.33.47l3.14,2.61a1,1,0,0,0,.62.25l-.18,2.31a.35.35,0,0,1-.26.11l-.23-.19-2.8-2.32c-.07,0-.13-.11-.2-.15a.75.75,0,0,0-1,.13.74.74,0,0,0,0,1,1.9,1.9,0,0,0,.21.19l2.75,2.28a1.18,1.18,0,0,1,.32.38.64.64,0,0,0,.65.38l.28,0c-.05.32-.09.65-.14,1-.11.61-.23,1.22-.34,1.83-.05,0-.11.06-.17,0l-.2-.2-2.36-2.44-.22-.22a.73.73,0,0,0-1,0,.75.75,0,0,0-.07,1,2,2,0,0,0,.2.21l2.27,2.35a.73.73,0,0,1,.23.42.71.71,0,0,0,.66.61h.25a1.3,1.3,0,0,1,0,.21l-.56,1.85-.1,0-.11-.06-.07-.08h0l-.08-.13-2.27-2.76a1.14,1.14,0,0,0-.11-.11A.74.74,0,0,0,304,548a1.55,1.55,0,0,0,0,.22c-.09-.05-.18-.08-.25-.13-.51-.39-1-.77-1.52-1.19-.33-.28-.68-.55-1-.83s-.74-.7-1.12-1c-.22-.21-.45-.4-.66-.62s-.44-.47-.65-.7l-1.05-1.12,0,0c-.28-.34-.56-.67-.83-1s-.62-.75-.91-1.14l-1-1.36c-.36-.49-.68-1-1-1.51l-.84-1.42C293.08,536.05,293,536,293,536Z" transform="translate(-228 -129)"/><path class="cls-7" d="M347.86,548.76a.2.2,0,0,0,.2,0c.29-.21.58-.4.86-.62.56-.43,1.12-.86,1.67-1.3.21-.16.4-.35.61-.53l.73-.62.18-.17,2.14-2.14c.29-.3.55-.62.82-.94.13-.14.26-.29.38-.44s.47-.54.68-.82c.49-.64,1-1.28,1.44-1.94.35-.48.67-1,1-1.48s.61-1,.92-1.55c0-.08.07-.17.19-.18,0,.16,0,.31,0,.47-.06.9-.13,1.8-.25,2.7a34.2,34.2,0,0,1-.9,4.46A33.45,33.45,0,0,1,350.31,558l-.16.15H350c.45-.67.89-1.34,1.33-2a2.26,2.26,0,0,0,.16-.26.7.7,0,0,0,0-.55.73.73,0,0,0-1.24-.25.92.92,0,0,0-.17.22L348.32,558c-.06.09-.1.21-.22.25l-.39-.54a5.6,5.6,0,0,1,.27-.55c.62-1,1.25-1.89,1.87-2.83a1.2,1.2,0,0,0,.15-.24.74.74,0,0,0-1.23-.81l-.18.26L347,556l-.21.28-.38-.59a1.18,1.18,0,0,0,.1-.19.69.69,0,0,0,.09-.3.8.8,0,0,1,.17-.45l1.93-2.9a1.91,1.91,0,0,0,.16-.27.75.75,0,0,0-.9-1,.81.81,0,0,0-.43.34l-2,3a14.23,14.23,0,0,1-.78-1.74h.34a.75.75,0,0,0,.72-.75v-.22l1.45-1.76c.07-.08.12-.17.18-.25h0l.07-.07.29-.3c.06,0,.12,0,.14-.08h0Z" transform="translate(-228 -129)"/><path class="cls-7" d="M293,536c.09,0,.13.06.16.13l.84,1.42c.31.51.63,1,1,1.51l1,1.36c.29.39.6.76.91,1.14s.55.67.83,1l0,0,1.05,1.12c.21.23.43.48.65.7s.44.41.66.62c.38.34.74.7,1.12,1s.67.55,1,.83c.49.42,1,.8,1.52,1.19.07,0,.16.08.25.13l.08.18c0,.13.11.2.18.29l2,2.37a.52.52,0,0,1,.14.36.75.75,0,0,0,.75.78h.31a13.83,13.83,0,0,1-.76,1.72c-.06-.08-.13-.16-.19-.25l-1.76-2.64a1.6,1.6,0,0,0-.18-.25.74.74,0,0,0-1-.11.75.75,0,0,0-.24.94l.15.24c.65,1,1.29,1.94,1.93,2.91a.76.76,0,0,1,.15.4.92.92,0,0,0,.1.32l.09.2-.35.58a2.36,2.36,0,0,1-.2-.23l-1.65-2.49a1.64,1.64,0,0,0-.19-.25.72.72,0,0,0-1-.12.74.74,0,0,0-.22,1l.14.21,1.86,2.8a1.88,1.88,0,0,1,.28.59l-.4.53c-.06-.08-.14-.15-.19-.23l-1.31-2c-.2-.31-.4-.63-.62-.93a.73.73,0,0,0-.91-.25.75.75,0,0,0-.42.85.75.75,0,0,1,0,.21l-.19-.19a33.17,33.17,0,0,1-5.41-9.52,32.39,32.39,0,0,1-1.61-6.17,25.94,25.94,0,0,1-.34-3c0-.28,0-.56-.05-.84A.83.83,0,0,1,293,536Z" transform="translate(-228 -129)"/><path class="cls-11" d="M348.1,558.29c.12,0,.16-.16.22-.25l1.81-2.73a.92.92,0,0,1,.17-.22.73.73,0,0,1,1.24.25.7.7,0,0,1,0,.55,2.26,2.26,0,0,1-.16.26c-.44.67-.88,1.34-1.33,2v.06h0c-.08,0-.08.07-.07.13h0l-.07.08a9.69,9.69,0,0,1-1.55,1.52c-.16.15-.32.3-.49.43a1.73,1.73,0,0,1-.3.16s-.09,0-.09.06h0a.52.52,0,0,0-.33,0l-1.63.44c-.1,0-.2.06-.3.07a.74.74,0,0,1-.42-1.41l.21-.07c.83-.22,1.66-.46,2.5-.66a.59.59,0,0,0,.47-.51A.16.16,0,0,0,348.1,558.29Z" transform="translate(-228 -129)"/><path class="cls-12" d="M300.54,556a.75.75,0,0,0,0-.21.75.75,0,0,1,.42-.85.73.73,0,0,1,.91.25c.22.3.42.62.62.93l1.31,2c.05.08.13.15.19.23a.24.24,0,0,0,.13.19.85.85,0,0,0,.21.37c0,.06.14.08.22.11l1.88.5.75.2a.74.74,0,1,1-.34,1.45l-1.14-.3-.33,0a2.74,2.74,0,0,1-.75-.55,33.59,33.59,0,0,1-2.6-2.46c-.23-.25-.47-.5-.69-.76s-.35-.47-.52-.7l-.06-.09h0l-.06-.07h0s0-.11-.06-.13,0-.07-.07-.06Z" transform="translate(-228 -129)"/><path class="cls-13" d="M352.23,513.73l-.09.23a.74.74,0,0,1-1.08.43l-.21-.13-2.46-1.57a2.85,2.85,0,0,0-.3-.16l-.17-.13-.4-.84c-.39-.82-.77-1.64-1.16-2.47a.78.78,0,0,1-.09-.6c0-.06,0-.13.07-.2l.09-.16c.11,0,.17.06.24.11l1,.83a.7.7,0,0,0,.1.08,2,2,0,0,1,.53.55,2.58,2.58,0,0,0,.08.26c.1.24.22.48.33.72l.23.44a.27.27,0,0,0,.11.19c0,.1.14.14.23.2l2,1.25a.19.19,0,0,0,.19.09h0s0,0,0,0A2,2,0,0,1,352.23,513.73Z" transform="translate(-228 -129)"/><path class="cls-14" d="M304,512.52l-.3.17-2.53,1.62a.91.91,0,0,1-.39.17.76.76,0,0,1-.61-.18l-.11-.1c0-.1,0-.16.08-.22l.75-.91.3-.36a4.25,4.25,0,0,1,.65-.62l.1-.06h0a.21.21,0,0,0,.18-.1l.79-.5c.05,0,.08-.09.12-.13a.29.29,0,0,0,.11-.19l.24-.47.06-.16a1,1,0,0,1,.27-.34l1.58-1.36.39-.31a.18.18,0,0,1,.17-.06,1,1,0,0,1-.09.66c-.48,1-.94,2-1.41,3l-.16.3A.26.26,0,0,0,304,512.52Z" transform="translate(-228 -129)"/><path class="cls-15" d="M351.27,512.76l-2-1.25c-.09-.06-.19-.1-.23-.2l.48-.47.13.1c.58.57,1.14,1.16,1.68,1.78Z" transform="translate(-228 -129)"/><path class="cls-15" d="M349,511.12l-.23-.44c-.11-.24-.23-.48-.33-.72a2.58,2.58,0,0,1-.08-.26c.37.29.71.63,1.07,1l-.21.24Z" transform="translate(-228 -129)"/><path class="cls-16" d="M303,511.31s-.07.1-.12.13l-.78.5-.06-.09.74-.76Z" transform="translate(-228 -129)"/><path class="cls-16" d="M303.35,510.65l-.24.47L303,511a1.12,1.12,0,0,1,.27-.3Z" transform="translate(-228 -129)"/><path class="cls-4" d="M302,511.85l.06.09a.24.24,0,0,1-.19.1C301.89,511.93,302,511.9,302,511.85Z" transform="translate(-228 -129)"/><path class="cls-4" d="M303.35,510.65h-.13l.19-.17Z" transform="translate(-228 -129)"/><path class="cls-4" d="M351.27,512.76l.1,0c.05,0,.1.06.09.13A.19.19,0,0,1,351.27,512.76Z" transform="translate(-228 -129)"/><path class="cls-4" d="M300.61,556c.07,0,.07.08.06.13l-.11-.13h.05Z" transform="translate(-228 -129)"/><path class="cls-4" d="M301.92,512l-.1.06S301.85,512,301.92,512Z" transform="translate(-228 -129)"/><path class="cls-4" d="M350,558.22v-.06h.12S350.11,558.27,350,558.22Z" transform="translate(-228 -129)"/><path class="cls-4" d="M350,558.34c0-.06,0-.11.07-.13S350,558.31,350,558.34Z" transform="translate(-228 -129)"/><path class="cls-7" d="M300.61,556h-.05l0-.06S300.6,556,300.61,556Z" transform="translate(-228 -129)"/><path class="cls-4" d="M300.67,556.15l.06.07Z" transform="translate(-228 -129)"/><path class="cls-4" d="M300.73,556.21l.06.09Z" transform="translate(-228 -129)"/><path class="cls-4" d="M349.89,558.41l.07-.08Z" transform="translate(-228 -129)"/><path class="cls-8" d="M347.46,560.58c0-.05.06,0,.09-.06Z" transform="translate(-228 -129)"/><path class="cls-4" d="M351.48,512.89s0,0,0,0S351.48,512.87,351.48,512.89Z" transform="translate(-228 -129)"/><path class="cls-17" d="M342.12,538.35c.09,0,.15-.06.21-.11l1.73-1.43L345,536l.17-.14a.74.74,0,0,1,1,1.13l-.14.12-3.14,2.61a1,1,0,0,1-.62.25l-.22,0a1.35,1.35,0,0,0-.56-.31.68.68,0,0,1-.22-.12l-3.42-2.06-.18-.11a.74.74,0,0,1,.77-1.26,2.34,2.34,0,0,1,.27.15l3,1.79.28.13Z" transform="translate(-228 -129)"/><path class="cls-17" d="M309.86,540a1,1,0,0,1-.62-.25l-3.14-2.61a.87.87,0,0,1-.33-.47.71.71,0,0,1,.26-.75.69.69,0,0,1,.82-.07,1.71,1.71,0,0,1,.27.2l2.54,2.11c.07.05.13.11.2.15H310s0,0,0,0h0c.09,0,.15,0,.21-.09l1.77-1.06,1.6-1a.89.89,0,0,1,.47-.14.72.72,0,0,1,.69.49.73.73,0,0,1-.22.82,1.48,1.48,0,0,1-.21.13l-3.41,2.06a.8.8,0,0,1-.22.12,1.38,1.38,0,0,0-.57.31Z" transform="translate(-228 -129)"/><path class="cls-18" d="M342.11,532.64l.1.12.48.37.3-.17,2.49-1.42.21-.12a.76.76,0,0,1,1,.29.74.74,0,0,1-.24,1l-.15.1-3.54,2a1.09,1.09,0,0,1-.65.18l-.22-.07a.9.9,0,0,1-.36-.5,3.29,3.29,0,0,1,0-.36l-.2-.17-2.72-2.14a1.43,1.43,0,0,1-.23-.2.74.74,0,0,1-.06-1,.76.76,0,0,1,1-.19,2.27,2.27,0,0,1,.25.18l2.15,1.7.28.21A.26.26,0,0,0,342.11,532.64Z" transform="translate(-228 -129)"/><path class="cls-17" d="M310,535a1.09,1.09,0,0,1-.65-.16c-1.17-.69-2.35-1.36-3.53-2a1.18,1.18,0,0,1-.19-.11.75.75,0,0,1-.22-1,.74.74,0,0,1,.94-.32l.25.13,2.49,1.43.28.16a3,3,0,0,0,.6-.47.39.39,0,0,0,.21-.15l1.47-1.15,1.08-.84a.75.75,0,0,1,1.18.24.75.75,0,0,1-.15.83,2.88,2.88,0,0,1-.27.22l-2.69,2.12-.17.14c0,.18-.05.35-.1.5a.84.84,0,0,1-.32.38Z" transform="translate(-228 -129)"/><path class="cls-17" d="M309.45,544.1l-.28,0a.64.64,0,0,1-.65-.38,1.18,1.18,0,0,0-.32-.38l-2.75-2.28a1.9,1.9,0,0,1-.21-.19.74.74,0,0,1,0-1,.75.75,0,0,1,1-.13c.07,0,.13.1.2.15l2.8,2.32.23.19a3.41,3.41,0,0,1,.5-.19l1.83-.79,1-.42a.69.69,0,0,1,.51,0,.7.7,0,0,1,.55.57.73.73,0,0,1-.34.78,3.36,3.36,0,0,1-.33.16L310,543.84l-.31.15Z" transform="translate(-228 -129)"/><path class="cls-17" d="M342.4,542.32a.4.4,0,0,0,.26.12l.43-.36,2.61-2.17c.07,0,.13-.11.2-.15a.76.76,0,0,1,1,.17.73.73,0,0,1-.05,1,2.41,2.41,0,0,1-.24.21l-2.73,2.27a.94.94,0,0,0-.26.3.7.7,0,0,1-.78.44l-.19,0c-.07-.05-.13-.12-.23-.11l-1-.44-2.54-1.11-.25-.13a.74.74,0,0,1-.28-.9.73.73,0,0,1,.87-.43l.29.11,2.4,1,.26.1Z" transform="translate(-228 -129)"/><path class="cls-17" d="M308.54,548.64h-.25a.71.71,0,0,1-.66-.61.73.73,0,0,0-.23-.42l-2.27-2.35a2,2,0,0,1-.2-.21.75.75,0,0,1,.07-1,.73.73,0,0,1,1,0l.22.22,2.36,2.44.2.2c.06.05.12,0,.17,0l.25-.06L312,546a1.34,1.34,0,0,1,.27-.07.73.73,0,0,1,.82.51.74.74,0,0,1-.39.89,1.73,1.73,0,0,1-.32.11l-3.33,1.05-.29.11Z" transform="translate(-228 -129)"/><path class="cls-17" d="M343.11,546.91c.06,0,.13.07.19,0l.18-.18,2.4-2.49.22-.22a.74.74,0,0,1,1.08,1,1.55,1.55,0,0,1-.21.23l-2.32,2.4a.63.63,0,0,0-.19.37.73.73,0,0,1-.67.63h-.25l-.25-.1-2.2-.7-1.45-.45a1.45,1.45,0,0,1-.29-.11.74.74,0,0,1,.43-1.39,1.34,1.34,0,0,1,.27.07l2.52.79.3.08Z" transform="translate(-228 -129)"/><path class="cls-17" d="M309.29,525.78a.37.37,0,0,0-.18,0,1.73,1.73,0,0,1-.68,0l-3.07-.49-.21,0a.74.74,0,0,1-.52-.79.73.73,0,0,1,.74-.66c.23,0,.46.06.68.09l2.95.46c.14,0,.18-.05.22-.15l.21-.22,2-2.44c.08-.09.15-.18.23-.26a.76.76,0,0,1,1,0,.74.74,0,0,1,.16,1c-.06.09-.13.17-.19.25-.81,1-1.63,1.94-2.43,2.92a1.23,1.23,0,0,1-.68.46Z" transform="translate(-228 -129)"/><path class="cls-17" d="M343.09,524.32l1.75-.27,1.69-.27a.91.91,0,0,1,.49.05.76.76,0,0,1,.44.7.73.73,0,0,1-.5.68,5.3,5.3,0,0,1-.55.1l-2.8.44a1.39,1.39,0,0,1-.61,0,1.49,1.49,0,0,0-.21,0l-.23,0a1.15,1.15,0,0,1-.66-.44c-.79-1-1.59-1.91-2.39-2.87-.08-.1-.16-.19-.23-.29a.75.75,0,0,1,.15-1,.74.74,0,0,1,1,.07l.14.16,2.08,2.49a2.73,2.73,0,0,0,.23.25C342.91,524.27,343,524.37,343.09,524.32Z" transform="translate(-228 -129)"/><path class="cls-17" d="M342.42,528.27a1.12,1.12,0,0,0,.27.31l.2-.05,2.95-.92.27-.08a.74.74,0,0,1,.43,1.42l-1.28.4-2.53.79c-.16.05-.32.07-.48.11l-.21-.06a1,1,0,0,1-.44-.54.84.84,0,0,0-.19-.24L339.13,527a1.71,1.71,0,0,1-.18-.2.74.74,0,0,1,1.08-1l.18.18L342,527.9c.06.07.11.15.21.16A.25.25,0,0,0,342.42,528.27Z" transform="translate(-228 -129)"/><path class="cls-17" d="M309.83,530.25a5.29,5.29,0,0,1-.54-.13L305.72,529l-.17-.06a.74.74,0,0,1,.42-1.42,1.09,1.09,0,0,1,.24.07l3,.93.21.05a1,1,0,0,0,.27-.3l.19-.2.25-.24c.6-.63,1.19-1.27,1.79-1.91l.2-.2a.75.75,0,0,1,1.09,1,2.41,2.41,0,0,1-.21.24c-.76.82-1.53,1.63-2.3,2.45a1,1,0,0,0-.24.36.9.9,0,0,1-.39.43A.23.23,0,0,0,309.83,530.25Z" transform="translate(-228 -129)"/><path class="cls-17" d="M344.15,520.29l.19.28h.29l2.55-.11h.19a.74.74,0,0,1,.71.66.73.73,0,0,1-.58.8,1.33,1.33,0,0,1-.28,0l-3,.13h-.62l-.19-.08a1.1,1.1,0,0,1-.34-.59c0-.08-.1-.15-.16-.22l-2.13-2.56c-.05-.07-.11-.13-.15-.2a.74.74,0,0,1,1.14-.93,1.81,1.81,0,0,1,.18.21l1.86,2.22a2.09,2.09,0,0,1,.14.17Z" transform="translate(-228 -129)"/><path class="cls-17" d="M308.47,522.08h-.41l-3.23-.14a1.1,1.1,0,0,1-.31,0,.77.77,0,0,1-.53-.76.73.73,0,0,1,.69-.68c.39,0,.79,0,1.18,0l1.84.08a.58.58,0,0,0,.23-.28.25.25,0,0,0,.17-.2l.2-.2,1.85-2.22.17-.19a.75.75,0,0,1,1,0,.73.73,0,0,1,.14,1,1.49,1.49,0,0,1-.15.2c-.71.84-1.41,1.69-2.11,2.53a.88.88,0,0,0-.23.41.74.74,0,0,1-.3.42Z" transform="translate(-228 -129)"/><path class="cls-17" d="M307.46,519l-.68.07-2.41.28-.49,0a.75.75,0,0,1-.77-.67.74.74,0,0,1,.62-.8l1-.12,2.13-.26c.11,0,.19,0,.23-.11l1.26-2.7a1.47,1.47,0,0,1,.14-.28.74.74,0,0,1,1.32.65c0,.09-.07.17-.11.26-.44.94-.88,1.87-1.31,2.82a1.19,1.19,0,0,1-.45.54c-.09.06-.17.14-.26.21Z" transform="translate(-228 -129)"/><path class="cls-17" d="M345.23,517.52l1.6.2,1.46.17a1.05,1.05,0,0,1,.24.06.74.74,0,0,1,.43.84.75.75,0,0,1-.76.58l-.4,0-2.94-.34-.25,0-.2-.06-.39-.3a1,1,0,0,1-.29-.41l-1-2.06-.45-1a.74.74,0,0,1,0-.6.67.67,0,0,1,.59-.48.69.69,0,0,1,.73.32c0,.08.09.17.13.25.37.8.74,1.6,1.12,2.4l.16.33C345,517.53,345.12,517.54,345.23,517.52Z" transform="translate(-228 -129)"/><path class="cls-17" d="M347.88,512.84c.42.27.83.55,1.25.81l1.52,1a.86.86,0,0,1,.38.44.72.72,0,0,1-.19.77.73.73,0,0,1-.81.14l-.29-.17-2.34-1.5a.83.83,0,0,0-.43-.15.27.27,0,0,0-.19-.08,2.94,2.94,0,0,1-.39-.66c-.42-.92-.85-1.83-1.27-2.74a.86.86,0,0,1-.12-.44.74.74,0,0,1,1.35-.4,1.83,1.83,0,0,1,.13.24l1.11,2.37.11.22A.2.2,0,0,0,347.88,512.84Z" transform="translate(-228 -129)"/><path class="cls-17" d="M305.11,514.16a.73.73,0,0,0-.43.16l-2.36,1.51a2,2,0,0,1-.25.14.74.74,0,0,1-.78-1.24,1.88,1.88,0,0,1,.23-.16l2.39-1.53.3-.21c.1,0,.14-.07.16-.16a2.85,2.85,0,0,0,.16-.3l1.07-2.28a2.26,2.26,0,0,1,.11-.22.73.73,0,0,1,1-.28.72.72,0,0,1,.38.91,1.15,1.15,0,0,1-.1.23l-1.35,2.9a1.16,1.16,0,0,1-.3.43Z" transform="translate(-228 -129)"/><path class="cls-17" d="M346.54,514.86c0,.1.1.12.18.15l1.19.46,1.62.63a.78.78,0,0,1,.52.54.73.73,0,0,1-.82.91,1.5,1.5,0,0,1-.36-.11l-2.76-1.06-.32-.1-.19-.08a1.77,1.77,0,0,1-.35-.55l-1.3-2.79c0-.09-.08-.17-.11-.26a.72.72,0,0,1,.36-.89.73.73,0,0,1,1,.25c0,.08.09.17.13.25.33.71.65,1.41,1,2.12a2.19,2.19,0,0,0,.17.29C346.46,514.71,346.46,514.8,346.54,514.86Z" transform="translate(-228 -129)"/><path class="cls-17" d="M306.29,516.28l-.33.1-2.75,1.06a1.76,1.76,0,0,1-.3.1.74.74,0,0,1-.52-1.36,2.12,2.12,0,0,1,.31-.14l2.53-1,.25-.11s0-.07.06-.1a.37.37,0,0,0,.12-.24l.18-.36,1-2c0-.08.07-.17.12-.25a.74.74,0,0,1,.95-.29.76.76,0,0,1,.39.92,1.3,1.3,0,0,1-.08.17c-.46,1-.92,2-1.39,3a.93.93,0,0,1-.31.42Z" transform="translate(-228 -129)"/><path class="cls-17" d="M347.76,548.86l-.29.3-.07.07h0a.42.42,0,0,0-.26.1l-1.2.76-1.68.95-.3.16a11,11,0,0,1-1.33.66c-.19.08-.36.2-.54.29l-.32,0h-1a.73.73,0,0,1-.68-.46.75.75,0,0,1,.66-1h.43l2.42,0h.53a.18.18,0,0,0,.19-.06c.06-.06.11-.13.16-.19l2.18-2.64a2.2,2.2,0,0,1,.2-.23.74.74,0,0,1,1.15.92c0,.09-.11.17-.17.26v0h0C347.8,548.73,347.8,548.81,347.76,548.86Z" transform="translate(-228 -129)"/><path class="cls-19" d="M307.84,550.72l.1,0h.24l2.27,0h.78a1.12,1.12,0,0,1,.31.05.74.74,0,0,1-.17,1.43,4.7,4.7,0,0,1-.53,0l-.31,0-.16-.1-.5-.22-1.87-1A1,1,0,0,1,307.84,550.72Z" transform="translate(-228 -129)"/><path class="cls-20" d="M341.87,534.94l.22.07c0,1,0,2,0,3,0,.1,0,.21,0,.31l-.22-.16c0-.63,0-1.26,0-1.89C341.86,535.85,341.86,535.39,341.87,534.94Z" transform="translate(-228 -129)"/><path class="cls-21" d="M310,535l.21-.06c0,1,0,2,0,2.94,0,.11,0,.22,0,.34s-.12.11-.21.09l0-1.76C310,536,310,535.52,310,535Z" transform="translate(-228 -129)"/><path class="cls-21" d="M309.22,546.85l-.25.06c.11-.61.23-1.22.34-1.83.05-.33.09-.66.14-1l.24-.11c-.11.87-.27,1.74-.44,2.61Z" transform="translate(-228 -129)"/><path class="cls-21" d="M343.11,546.91l-.24-.07c-.1-.57-.21-1.14-.31-1.71-.06-.38-.1-.76-.16-1.14.1,0,.16.06.23.11.11.86.27,1.71.44,2.57A2,2,0,0,0,343.11,546.91Z" transform="translate(-228 -129)"/><path class="cls-20" d="M309.83,530.25a.23.23,0,0,1,.21,0c0,.63.08,1.27.11,1.9l0,.4a.39.39,0,0,1-.21.15c0-.26,0-.51-.05-.77Z" transform="translate(-228 -129)"/><path class="cls-21" d="M342,530.19l.21.06c0,.64-.07,1.28-.1,1.93,0,.15,0,.31,0,.46a.26.26,0,0,1-.21-.14l.06-1C342,531,342,530.61,342,530.19Z" transform="translate(-228 -129)"/><path class="cls-21" d="M309.85,528.08l-.19.2c-.06-.45-.12-.89-.19-1.33l-.18-1.17.23,0c.08.51.16,1,.23,1.52C309.79,527.59,309.82,527.83,309.85,528.08Z" transform="translate(-228 -129)"/><path class="cls-20" d="M342.42,528.27a.25.25,0,0,1-.17-.21c.08-.61.17-1.23.25-1.84l.06-.4.23,0c-.07.47-.15.94-.21,1.42,0,.26-.07.53-.11.8A2.56,2.56,0,0,1,342.42,528.27Z" transform="translate(-228 -129)"/><path class="cls-21" d="M308.47,522.08l.19-.1c.14.57.29,1.14.44,1.71l.12.48c0,.1-.08.19-.22.15C308.86,523.56,308.67,522.82,308.47,522.08Z" transform="translate(-228 -129)"/><path class="cls-21" d="M343.42,522l.19.08-.48,2a2.7,2.7,0,0,0,0,.28c-.13,0-.18-.05-.22-.14.14-.57.27-1.14.41-1.71C343.32,522.31,343.37,522.15,343.42,522Z" transform="translate(-228 -129)"/><path class="cls-21" d="M309.92,542.24a.35.35,0,0,1-.24.08l.18-2.31.22,0c0,.41-.05.82-.08,1.24S309.94,541.9,309.92,542.24Z" transform="translate(-228 -129)"/><path class="cls-21" d="M342.4,542.32l-.24-.09-.09-1.17c0-.36-.05-.72-.07-1.08l.22,0c0,.46.06.92.1,1.39C342.34,541.71,342.37,542,342.4,542.32Z" transform="translate(-228 -129)"/><path class="cls-21" d="M344.15,550.7h-.25c-.13-.45-.27-.89-.4-1.34l-.21-.81.25.1C343.71,549.34,343.92,550,344.15,550.7Z" transform="translate(-228 -129)"/><path class="cls-21" d="M308.18,550.7h-.24l.56-1.85a1.3,1.3,0,0,0,0-.21l.24-.07c-.07.28-.13.56-.21.83Z" transform="translate(-228 -129)"/><path class="cls-21" d="M306.29,516.28l.18-.1.51,1.07c0,.06.07.11.1.16s-.12.13-.23.11C306.66,517.11,306.48,516.69,306.29,516.28Z" transform="translate(-228 -129)"/><path class="cls-20" d="M345.6,516.2l.19.08c-.18.39-.37.77-.55,1.15a.28.28,0,0,0,0,.09c-.11,0-.19,0-.22-.12s.17-.34.26-.52Z" transform="translate(-228 -129)"/><path class="cls-20" d="M344.41,518.91l.2.06-.46,1.32-.19-.19a1.3,1.3,0,0,0,.08-.17C344.17,519.59,344.29,519.25,344.41,518.91Z" transform="translate(-228 -129)"/><path class="cls-20" d="M307.46,519l.21-.06c.14.4.29.79.43,1.18a.25.25,0,0,1-.17.2Z" transform="translate(-228 -129)"/><path class="cls-21" d="M305.66,514.62a.37.37,0,0,1-.12.24l-.43-.7.18-.1Z" transform="translate(-228 -129)"/><path class="cls-20" d="M346.54,514.86c-.08-.06-.08-.15-.09-.24l.33-.54a.27.27,0,0,1,.19.08Z" transform="translate(-228 -129)"/><path class="cls-21" d="M347.88,512.84a.2.2,0,0,1-.18-.17l.22-.27.17.13Z" transform="translate(-228 -129)"/><path class="cls-20" d="M304.37,512.67c0,.09-.06.15-.16.16l-.23-.31a.26.26,0,0,1,.18-.12Z" transform="translate(-228 -129)"/><path class="cls-22" d="M305.68,555.7l-.09-.2a.92.92,0,0,1-.1-.32.76.76,0,0,0-.15-.4c-.64-1-1.28-1.94-1.93-2.91l-.15-.24a.75.75,0,0,1,.24-.94.74.74,0,0,1,1,.11,1.6,1.6,0,0,1,.18.25l1.76,2.64c.06.09.13.17.19.25a.25.25,0,0,0,.13.2.54.54,0,0,1,0,.11.24.24,0,0,0,.26.13l2.43,0h1a.77.77,0,0,1,.78.88.77.77,0,0,1-.66.61H307.5l-.72,0a3.53,3.53,0,0,1-.92,0C305.84,555.73,305.76,555.71,305.68,555.7Z" transform="translate(-228 -129)"/><path class="cls-23" d="M345.5,554l2-3a.81.81,0,0,1,.43-.34.75.75,0,0,1,.9,1,1.91,1.91,0,0,1-.16.27l-1.93,2.9a.8.8,0,0,0-.17.45.69.69,0,0,1-.09.3,1.18,1.18,0,0,1-.1.19.25.25,0,0,0-.17.11,3.84,3.84,0,0,1-1.12.06l-2.15,0h-1.43a.74.74,0,0,1,0-1.48h.22l2.77,0h.67a.33.33,0,0,0,.14-.21Z" transform="translate(-228 -129)"/><path class="cls-22" d="M304.37,557.76a1.88,1.88,0,0,0-.28-.59l-1.86-2.8-.14-.21a.74.74,0,0,1,.22-1,.72.72,0,0,1,1,.12,1.64,1.64,0,0,1,.19.25l1.65,2.49a2.36,2.36,0,0,0,.2.23c0,.09,0,.17.13.19s0,.09.06.11l.23.08,3.4.91a.9.9,0,0,1,.23.08.72.72,0,0,1,.38.89.71.71,0,0,1-.83.5c-.32-.07-.64-.16-1-.25l-2.38-.63a.74.74,0,0,0-.39,0,.65.65,0,0,1-.45-.09l-.21-.14A.19.19,0,0,0,304.37,557.76Z" transform="translate(-228 -129)"/><path class="cls-22" d="M346.77,556.29,347,556l1.61-2.43.18-.26a.74.74,0,0,1,1.23.81,1.2,1.2,0,0,1-.15.24c-.62.94-1.25,1.88-1.87,2.83a5.6,5.6,0,0,0-.27.55.19.19,0,0,0-.15.15l-.19.1a.63.63,0,0,1-.53.11.72.72,0,0,0-.33,0l-2.44.65c-.3.08-.59.17-.9.24a.73.73,0,0,1-.88-.75.7.7,0,0,1,.41-.64,2.13,2.13,0,0,1,.33-.11l3.3-.88.21-.07s0-.08.08-.12A.19.19,0,0,0,346.77,556.29Z" transform="translate(-228 -129)"/><path class="cls-23" d="M307.84,550.72a1,1,0,0,0,.16.14l1.87,1,.5.22.16.1-.28,0-2.4,0-.25,0h-.55a.75.75,0,0,1-.75-.78.52.52,0,0,0-.14-.36l-2-2.37c-.07-.09-.17-.16-.18-.29l.17.07c.3.2.59.42.89.61l1.21.76,1.05.65a.42.42,0,0,0,.32.09h0l.07.08Z" transform="translate(-228 -129)"/><path class="cls-23" d="M342.1,552.15c.18-.09.35-.21.54-.29a11,11,0,0,0,1.33-.66l.3-.16,1.68-.95,1.2-.76a.42.42,0,0,1,.26-.1c-.06.08-.11.17-.18.25l-1.45,1.76v.22a.75.75,0,0,1-.72.75h-.58l-.31,0-1.92,0Z" transform="translate(-228 -129)"/><path class="cls-6" d="M344.48,552.22h.24a14.23,14.23,0,0,0,.78,1.74l-.16.19c-.1-.2-.21-.39-.3-.6C344.85,553.11,344.66,552.66,344.48,552.22Z" transform="translate(-228 -129)"/><path class="cls-6" d="M307.36,552.22h.24a19.16,19.16,0,0,1-.78,1.8.94.94,0,0,1-.09.12.25.25,0,0,1-.13-.2A13.83,13.83,0,0,0,307.36,552.22Z" transform="translate(-228 -129)"/><path class="cls-6" d="M346.77,556.29a.19.19,0,0,1-.15.18l-.4-.66a.25.25,0,0,1,.17-.11Z" transform="translate(-228 -129)"/><path class="cls-6" d="M305.46,556.47c-.1,0-.12-.1-.13-.19l.35-.58c.08,0,.16,0,.18.12Z" transform="translate(-228 -129)"/><path class="cls-6" d="M304.37,557.76a.19.19,0,0,1,.17.13l-.44.59a.24.24,0,0,1-.13-.19Z" transform="translate(-228 -129)"/><path class="cls-6" d="M347.56,557.9a.19.19,0,0,1,.15-.15l.39.54a.16.16,0,0,1-.13.18Z" transform="translate(-228 -129)"/><path class="cls-17" d="M307.67,550.59a.42.42,0,0,1-.32-.09l-1.05-.65-1.21-.76c-.3-.19-.59-.41-.89-.61l-.17-.07-.08-.18a1.55,1.55,0,0,1,0-.22.74.74,0,0,1,1.25-.42,1.14,1.14,0,0,1,.11.11l2.27,2.76Z" transform="translate(-228 -129)"/><path class="cls-21" d="M310,538.3s0,0,0,0Z" transform="translate(-228 -129)"/><path class="cls-17" d="M307.73,550.66l-.07-.08Z" transform="translate(-228 -129)"/><path class="cls-9" d="M347.76,548.86c0-.05,0-.13.14-.08S347.82,548.85,347.76,548.86Z" transform="translate(-228 -129)"/><path class="cls-23" d="M347.4,549.23l.07-.07Z" transform="translate(-228 -129)"/></g></svg>