<svg id="Layer_1" data-name="Layer 1" xmlns="http://www.w3.org/2000/svg" viewBox="0 0 189.7 255.99"><defs><style>.cls-1{fill:#fff;}</style></defs><path class="cls-1" d="M448.28,1145H311c0-5.69-.47-11.33.15-16.85.47-4.19,3.78-6.53,8.12-6.7,3.33-.13,6.66,0,10,0q53.69,0,107.38-.06c8.94,0,11.43,2.43,11.64,11.57C448.36,1136.78,448.28,1140.6,448.28,1145Z" transform="translate(-258.61 -889.02)"/><path class="cls-1" d="M328,1111.3c2.22-.84,4.43-2.39,6.66-2.4q44.93-.26,89.85,0c2.14,0,4.27,1.5,6.41,2.3l-.39,1.43h-102Z" transform="translate(-258.61 -889.02)"/><path class="cls-1" d="M328,1116.21H431.43l.31,1.73a31.7,31.7,0,0,1-5.15.82q-42.43.08-84.86,0c-3.5,0-7,.07-10.49,0a17.05,17.05,0,0,1-3.57-.87Z" transform="translate(-258.61 -889.02)"/><path class="cls-1" d="M288.94,938.4l43.22-24.88,29.37,48.64L318.28,987.1Z" transform="translate(-258.61 -889.02)"/><path class="cls-1" d="M342.63,990.54l8.44-4.76c7.53,11.25,15.39,22.22,22.44,33.69,15.26,24.8,30.06,49.88,45.19,74.77,2.36,3.89,2.66,7.17-1.36,9.7s-7.15.78-9.4-3C386.34,1064.4,364.73,1027.88,342.63,990.54Z" transform="translate(-258.61 -889.02)"/><path class="cls-1" d="M266.52,938.89c2.27,2.46,4.37,4.12,5.67,6.26,10.6,17.44,21,35,31.57,52.47,2.52,4.17,3,8.06-1.62,10.9s-8,1.09-10.56-3.2c-10.74-17.88-21.64-35.66-32.06-53.72-1.35-2.33-1.07-6.43,0-9.06C260.27,940.8,263.78,940.22,266.52,938.89Z" transform="translate(-258.61 -889.02)"/><path class="cls-1" d="M383.31,960.06c-2.33-2.35-4.38-3.77-5.56-5.72-10.78-17.67-21.4-35.44-32.07-53.18-2.53-4.21-2.65-8.18,1.95-10.92s7.91-.52,10.44,3.67c10.56,17.54,21.36,34.94,31.62,52.66,1.46,2.52,1.2,6.73.26,9.67C389.4,957.94,385.87,958.68,383.31,960.06Z" transform="translate(-258.61 -889.02)"/><path class="cls-1" d="M281.6,935.56c1.73,1.85,3.35,3.08,4.33,4.7q14.25,23.38,28.26,46.89c.78,1.3,1.8,3.14,1.42,4.3-.69,2.1-2,4.6-3.73,5.54-1.18.63-4.56-.59-5.4-2q-16-25.83-31.33-52a5,5,0,0,1,.55-4.65C277.09,937,279.37,936.54,281.6,935.56Z" transform="translate(-258.61 -889.02)"/><path class="cls-1" d="M374.9,958.61c-1.5,1.14-2.87,2.93-4.52,3.23a6.5,6.5,0,0,1-5.24-1.51,56.32,56.32,0,0,1-6-8.79q-11.74-19.37-23.37-38.83c-1-1.69-2.42-3.71-2.21-5.4.26-2.09,1.59-5,3.26-5.7,1.46-.66,5,.54,5.95,2,10.55,17,20.79,34.16,31.06,51.31A17.29,17.29,0,0,1,374.9,958.61Z" transform="translate(-258.61 -889.02)"/><path class="cls-1" d="M350.48,972.91c3,6.87,2.14,7.9-7.48,13.27-4.68,2.61-7.39,1.2-9.64-3.55Z" transform="translate(-258.61 -889.02)"/><path class="cls-1" d="M419.14,919.63c4.19-2.5,10.57.59,10.58,4.5,0,1.14-1.65,3.17-2.67,3.25-2.65.22-3.12,2-3.91,3.79l-76.43,169.31c-2.09,4.63-4.31,5.5-8.79,3.49-4-1.79-4.7-3.78-2.77-7.67q41.51-83.64,83-167.28c1-2,2.14-3.73.45-6.1C418.1,922.16,419,920.35,419.14,919.63Z" transform="translate(-258.61 -889.02)"/></svg>